<?xml version="1.0" encoding="UTF-8"?>
<!DOCTYPE svg PUBLIC "-//W3C//DTD SVG 1.1//EN" "http://www.w3.org/Graphics/SVG/1.1/DTD/svg11.dtd">
<!-- Creator: CorelDRAW X7 -->
<svg xmlns="http://www.w3.org/2000/svg" xml:space="preserve" width="135.298mm" height="38.6232mm" version="1.1" style="shape-rendering:geometricPrecision; text-rendering:geometricPrecision; image-rendering:optimizeQuality; fill-rule:evenodd; clip-rule:evenodd"
viewBox="0 0 15560 4442"
 xmlns:xlink="http://www.w3.org/1999/xlink">
 <defs>
  <style type="text/css">
   <![CDATA[
    .str0 {stroke:#4D4D4D;stroke-width:40.5624;stroke-dasharray:81.124825 121.687238}
    .fil0 {fill:none}
    .fil1 {fill:#014E1A}
    .fil3 {fill:#0EBF00}
    .fil2 {fill:white}
   ]]>
  </style>
 </defs>
 <g id="Layer_x0020_1">
  <metadata id="CorelCorpID_0Corel-Layer"/>
  <path class="fil0 str0" d="M2220 20l11120 0c1210,0 2200,991 2200,2201l0 0c0,1210 -990,2201 -2200,2201l-11120 0c-1211,0 -2201,-991 -2201,-2201l0 0c0,-1210 990,-2201 2201,-2201z"/>
  <path class="fil1" d="M2230 481l11100 0c957,0 1739,783 1739,1740l0 0c0,957 -782,1740 -1739,1740l-11100 0c-957,0 -1740,-783 -1740,-1740l0 0c0,-957 783,-1740 1740,-1740z"/>
  <path class="fil2" d="M5157 1948c-29,0 -55,6 -79,17 -25,11 -46,26 -64,45 -18,19 -33,41 -44,67 -11,25 -18,53 -21,82l386 0c0,-30 -4,-57 -12,-83 -8,-26 -19,-48 -34,-67 -15,-19 -34,-34 -56,-45 -22,-11 -47,-16 -76,-16zm64 579c41,0 78,-4 111,-10 34,-6 67,-16 100,-28l0 102c-27,13 -60,24 -99,31 -40,8 -82,12 -128,12 -54,0 -104,-7 -151,-21 -48,-14 -88,-36 -123,-66 -34,-31 -61,-71 -81,-120 -20,-49 -29,-109 -29,-179 0,-68 9,-128 28,-178 19,-50 44,-92 76,-126 32,-34 68,-59 109,-76 41,-17 84,-25 129,-25 42,0 82,7 118,21 37,14 69,36 95,66 27,30 49,69 64,116 16,48 23,105 23,171 0,7 0,12 0,17 0,4 0,14 0,30l-520 0c0,48 7,88 21,122 15,33 35,61 60,81 25,21 54,36 88,45 33,10 70,15 109,15zm645 -284c0,60 7,108 21,145 14,38 32,67 54,88 22,20 46,35 72,42 26,8 51,12 74,12 38,0 74,-8 107,-23 33,-16 63,-37 88,-63l0 -394c-7,-9 -16,-20 -29,-32 -12,-12 -26,-23 -42,-33 -16,-10 -35,-19 -55,-26 -21,-7 -43,-11 -68,-11 -36,0 -68,7 -96,22 -28,14 -51,35 -70,60 -18,26 -33,57 -42,93 -10,37 -14,77 -14,120zm207 -400c33,0 61,4 86,12 24,8 45,18 62,30 18,12 32,23 42,35 10,12 17,21 21,28l3 0 26 -86 92 0 0 796c0,58 -9,109 -28,152 -19,43 -46,78 -80,107 -35,28 -76,50 -125,64 -48,14 -101,21 -160,21 -50,0 -94,-5 -134,-13 -39,-9 -69,-19 -91,-31l0 -104c17,7 35,14 52,19 17,4 34,8 52,12 18,3 36,6 55,7 19,2 40,3 62,3 89,0 157,-21 204,-62 47,-41 70,-104 70,-188l0 -101 -2 0c-27,30 -58,52 -94,67 -36,15 -77,23 -123,23 -21,0 -43,-3 -68,-7 -24,-5 -48,-13 -73,-25 -24,-11 -47,-26 -70,-45 -22,-18 -41,-42 -58,-70 -17,-28 -31,-62 -41,-100 -10,-39 -16,-83 -16,-134 0,-70 10,-131 29,-182 19,-52 44,-94 75,-128 32,-34 67,-59 107,-75 41,-17 82,-25 125,-25zm1217 388c0,-43 -4,-83 -14,-118 -9,-34 -23,-64 -42,-88 -18,-25 -41,-44 -68,-57 -27,-13 -58,-20 -94,-20 -25,0 -48,4 -69,10 -21,7 -40,16 -57,26 -17,11 -32,22 -44,34 -12,12 -22,23 -29,32l0 394c26,26 55,47 88,63 34,15 69,23 107,23 24,0 48,-4 74,-13 26,-9 50,-24 72,-47 22,-22 40,-53 55,-91 14,-39 21,-88 21,-148zm128 -1c0,52 -5,98 -15,138 -10,41 -24,76 -41,106 -17,30 -37,55 -60,75 -22,21 -46,37 -70,50 -25,12 -49,21 -75,26 -25,6 -48,9 -71,9 -46,0 -86,-8 -120,-23 -33,-15 -64,-37 -91,-67l-2 0 0 438 -121 0 0 -1120 93 0 26 86 2 0c7,-11 16,-21 26,-31 11,-10 26,-21 44,-32 18,-11 40,-21 66,-30 25,-8 53,-12 83,-12 43,0 83,7 122,21 40,14 75,37 104,68 30,31 55,71 73,120 18,49 27,108 27,178zm843 1c0,-43 -5,-83 -14,-118 -9,-34 -23,-64 -42,-88 -18,-25 -41,-44 -68,-57 -27,-13 -58,-20 -94,-20 -25,0 -48,4 -70,10 -20,7 -39,16 -56,26 -17,11 -32,22 -44,34 -12,12 -22,23 -30,32l0 394c26,26 56,47 89,63 33,15 69,23 107,23 23,0 48,-4 74,-13 26,-9 50,-24 72,-47 22,-22 40,-53 55,-91 14,-39 21,-88 21,-148zm128 -1c0,52 -5,98 -15,138 -11,41 -25,76 -42,106 -16,30 -36,55 -59,75 -23,21 -46,37 -71,50 -24,12 -49,21 -74,26 -25,6 -49,9 -71,9 -46,0 -86,-8 -120,-23 -34,-15 -64,-37 -91,-67l-3 0 0 438 -120 0 0 -1120 92 0 26 86 3 0c7,-11 15,-21 26,-31 11,-10 26,-21 44,-32 18,-11 40,-21 65,-30 26,-8 54,-12 84,-12 42,0 83,7 122,21 39,14 74,37 104,68 30,31 55,71 73,120 18,49 27,108 27,178zm324 384l0 -154 151 0 0 154 -151 0zm718 -124c18,-55 43,-125 74,-210l150 -418 123 0 -284 752 -127 0 -284 -752 123 0 149 418c30,82 54,152 73,210l3 0zm723 -523l3 0c13,-18 28,-34 45,-49 17,-15 35,-28 56,-39 21,-12 43,-21 68,-27 24,-6 51,-9 80,-9 34,0 67,5 97,14 30,9 56,25 78,46 22,21 40,49 53,83 13,34 19,75 19,125l0 503 -123 0 0 -483c0,-65 -13,-112 -38,-140 -25,-29 -61,-43 -109,-43 -42,0 -83,12 -122,35 -40,24 -74,56 -102,97l0 534 -123 0 0 -752 95 0 23 105z"/>
  <path class="fil2" d="M2333 919c719,0 1302,583 1302,1302 0,719 -583,1302 -1302,1302 -719,0 -1302,-583 -1302,-1302 0,-719 583,-1302 1302,-1302z"/>
  <path class="fil1" d="M2587 2337c83,-36 125,-114 125,-234 0,-172 -86,-257 -256,-257l-241 0 0 153 -417 0 0 -507 678 0c204,0 365,59 485,177 113,112 169,257 169,434 0,178 -56,324 -169,435 -97,94 -221,150 -374,168l0 -369z"/>
  <polygon class="fil3" points="1799,2092 2216,2092 2216,2343 2479,2343 2479,2710 2216,2710 2216,2949 1799,2949 1799,2710 1536,2710 1536,2343 1799,2343 "/>
 </g>
</svg>
