<?xml version="1.0" encoding="UTF-8"?>
<!DOCTYPE svg PUBLIC "-//W3C//DTD SVG 1.1//EN" "http://www.w3.org/Graphics/SVG/1.1/DTD/svg11.dtd">
<!-- Creator: CorelDRAW X7 -->
<svg xmlns="http://www.w3.org/2000/svg" xml:space="preserve" width="126.848mm" height="30.3309mm" version="1.1" style="shape-rendering:geometricPrecision; text-rendering:geometricPrecision; image-rendering:optimizeQuality; fill-rule:evenodd; clip-rule:evenodd"
viewBox="0 0 2578 616"
 xmlns:xlink="http://www.w3.org/1999/xlink">
 <defs>
  <style type="text/css">
   <![CDATA[
    .str0 {stroke:#666666;stroke-width:1.54847}
    .fil0 {fill:none}
    .fil1 {fill:#666666}
   ]]>
  </style>
 </defs>
 <g id="Layer_x0020_1">
  <metadata id="CorelCorpID_0Corel-Layer"/>
  <path class="fil0 str0" d="M308 1l1962 0c169,0 307,138 307,307l0 0c0,169 -138,308 -307,308l-1962 0c-169,0 -307,-139 -307,-308l0 0c0,-169 138,-307 307,-307z"/>
  <path class="fil0 str0" d="M326 78c127,0 230,103 230,230 0,127 -103,230 -230,230 -127,0 -230,-103 -230,-230 0,-127 103,-230 230,-230z"/>
  <path class="fil1" d="M881 341c0,-8 -1,-15 -3,-22 -2,-6 -5,-11 -9,-16 -3,-4 -8,-8 -13,-10 -5,-2 -10,-3 -16,-3 -6,0 -11,1 -16,3 -5,2 -9,6 -13,10 -4,5 -6,10 -8,16 -2,7 -3,14 -3,22 0,9 1,16 3,22 2,7 4,12 8,16 4,5 8,8 13,10 5,3 10,4 16,4 6,0 12,-1 16,-4 5,-2 10,-5 13,-10 4,-4 7,-9 9,-16 2,-6 3,-13 3,-22zm22 0c0,11 -1,20 -4,29 -3,8 -7,16 -13,22 -5,6 -12,11 -20,14 -7,3 -16,5 -26,5 -10,0 -18,-2 -26,-5 -8,-3 -15,-8 -20,-14 -6,-6 -10,-14 -13,-22 -3,-9 -4,-18 -4,-29 0,-10 1,-20 4,-28 3,-9 8,-16 13,-22 6,-6 12,-11 20,-15 8,-3 17,-5 26,-5 10,0 19,2 27,5 7,4 14,9 19,15 6,6 10,13 13,22 3,8 4,18 4,28zm75 -48l0 0c3,-3 5,-6 8,-8 3,-3 7,-5 10,-7 4,-2 8,-4 12,-5 5,-1 9,-2 14,-2 6,0 12,1 17,3 6,2 10,4 14,8 4,4 7,9 10,15 2,6 3,13 3,22l0 89 -22 0 0 -86c0,-11 -2,-19 -6,-24 -5,-5 -11,-8 -20,-8 -7,0 -14,2 -21,6 -7,4 -13,10 -18,17l0 95 -22 0 0 -133 17 0 4 18zm201 -3c-5,0 -10,1 -14,3 -4,2 -8,5 -11,8 -3,3 -6,7 -8,12 -2,4 -3,9 -4,14l68 0c0,-5 0,-10 -2,-14 -1,-5 -3,-9 -6,-12 -2,-4 -5,-6 -9,-8 -4,-2 -9,-3 -14,-3zm11 102c8,0 14,0 20,-1 6,-2 12,-3 18,-5l0 18c-5,2 -11,4 -18,5 -7,1 -14,2 -22,2 -10,0 -19,-1 -27,-3 -9,-3 -16,-7 -22,-12 -6,-6 -11,-13 -14,-21 -4,-9 -5,-20 -5,-32 0,-12 1,-23 5,-31 3,-9 8,-17 13,-23 6,-6 12,-10 19,-13 8,-3 15,-5 23,-5 8,0 15,2 21,4 7,3 12,6 17,12 5,5 8,12 11,20 3,9 4,19 4,31 0,1 0,2 0,2 0,1 0,3 0,6l-92 0c0,8 1,15 4,21 3,6 6,11 11,15 4,3 9,6 15,8 6,1 13,2 19,2zm196 -51c0,-11 -1,-19 -4,-26 -2,-6 -5,-12 -9,-15 -4,-4 -8,-7 -13,-8 -4,-1 -8,-2 -13,-2 -6,0 -13,1 -19,4 -6,3 -11,7 -15,11l0 70c1,1 3,3 5,5 2,3 4,5 7,6 3,2 6,4 10,5 3,1 7,2 12,2 6,0 12,-1 17,-4 5,-2 9,-6 12,-11 3,-4 6,-10 7,-16 2,-7 3,-14 3,-21zm23 -2c0,12 -2,23 -5,32 -4,9 -8,17 -14,23 -5,6 -12,10 -19,13 -7,3 -14,4 -22,4 -5,0 -10,-1 -15,-2 -4,-1 -8,-3 -11,-5 -3,-2 -5,-4 -7,-6 -2,-2 -3,-4 -4,-5l0 0 -5 15 -16 0 0 -203 22 0 0 82 0 0c5,-5 10,-9 17,-11 6,-3 13,-5 21,-5 4,0 8,1 12,2 5,0 9,2 13,4 4,2 9,5 12,8 4,3 8,8 11,13 3,5 5,10 7,17 2,7 3,15 3,24zm55 69l0 -133 22 0 0 133 -22 0zm-1 -164l0 -24 22 0 0 24 -22 0zm101 66c0,4 0,7 2,9 2,2 4,4 6,6 3,1 6,2 9,3 4,1 7,2 11,3 5,1 10,2 14,4 5,1 9,3 13,6 3,2 7,6 9,11 2,4 3,10 3,18 0,6 -1,12 -4,17 -2,6 -6,10 -11,13 -4,4 -10,7 -17,8 -6,2 -14,3 -22,3 -4,0 -9,0 -13,-1 -4,0 -7,-1 -10,-2 -3,0 -6,-1 -8,-2 -2,-1 -4,-2 -5,-2l0 -18c5,2 11,4 16,5 5,1 11,2 18,2 5,0 10,-1 14,-2 4,-1 7,-2 10,-4 3,-2 6,-4 7,-7 2,-2 3,-6 3,-9 0,-4 -1,-7 -2,-9 -2,-3 -4,-5 -6,-6 -3,-2 -6,-3 -9,-4 -3,-1 -7,-2 -10,-3 -5,-1 -10,-2 -15,-4 -4,-1 -9,-3 -13,-6 -4,-2 -7,-6 -9,-10 -3,-4 -4,-10 -4,-17 0,-7 1,-13 4,-18 2,-5 6,-9 10,-13 4,-3 9,-5 15,-7 6,-2 12,-3 18,-3 8,0 14,1 21,2 6,2 12,4 17,6l0 18c-6,-2 -11,-4 -17,-5 -5,-2 -11,-2 -17,-2 -5,0 -9,0 -13,1 -3,1 -6,3 -9,5 -2,1 -4,4 -5,6 -1,3 -1,5 -1,8zm123 98l0 -28 27 0 0 28 -27 0zm127 -22c3,-10 7,-22 13,-37l26 -74 22 0 -50 133 -22 0 -51 -133 22 0 26 74c6,14 10,27 13,37l1 0zm128 -93l0 0c3,-3 5,-6 8,-8 3,-3 6,-5 10,-7 4,-2 8,-4 12,-5 4,-1 9,-2 14,-2 6,0 12,1 17,3 6,2 10,4 14,8 4,4 7,9 9,15 3,6 4,13 4,22l0 89 -22 0 0 -86c0,-11 -2,-19 -7,-24 -4,-5 -10,-8 -19,-8 -7,0 -15,2 -22,6 -7,4 -13,10 -18,17l0 95 -21 0 0 -133 17 0 4 18z"/>
  <g id="_166_x002c__Heart_x002c__Love_x002c__Like_x002c__Twitter">
   <g>
    <path class="fil1" d="M393 189c37,0 67,30 67,67 0,67 -67,105 -134,172 -66,-67 -133,-105 -133,-172 0,-37 30,-67 67,-67 33,0 50,17 66,50 17,-33 34,-50 67,-50z"/>
   </g>
  </g>
 </g>
</svg>
