<?xml version="1.0" encoding="UTF-8"?>
<!DOCTYPE svg PUBLIC "-//W3C//DTD SVG 1.1//EN" "http://www.w3.org/Graphics/SVG/1.1/DTD/svg11.dtd">
<!-- Creator: CorelDRAW X7 -->
<svg xmlns="http://www.w3.org/2000/svg" xml:space="preserve" width="135.298mm" height="38.6232mm" version="1.1" style="shape-rendering:geometricPrecision; text-rendering:geometricPrecision; image-rendering:optimizeQuality; fill-rule:evenodd; clip-rule:evenodd"
viewBox="0 0 2401 685"
 xmlns:xlink="http://www.w3.org/1999/xlink">
 <defs>
  <style type="text/css">
   <![CDATA[
    .str0 {stroke:#4D4D4D;stroke-width:6.25842;stroke-dasharray:12.516831 18.775247}
    .fil0 {fill:none}
    .fil1 {fill:#8F028F}
    .fil2 {fill:white}
   ]]>
  </style>
 </defs>
 <g id="Layer_x0020_1">
  <metadata id="CorelCorpID_0Corel-Layer"/>
  <path class="fil0 str0" d="M342 3l1716 0c187,0 340,153 340,340l0 0c0,186 -153,339 -340,339l-1716 0c-186,0 -339,-153 -339,-339l0 0c0,-187 153,-340 339,-340z"/>
  <path class="fil1" d="M344 74l1713 0c147,0 268,121 268,269l0 0c0,147 -121,268 -268,268l-1713 0c-148,0 -268,-121 -268,-268l0 0c0,-148 120,-269 268,-269z"/>
  <path class="fil2" d="M360 142c111,0 201,90 201,201 0,111 -90,201 -201,201 -111,0 -201,-90 -201,-201 0,-111 90,-201 201,-201z"/>
  <path class="fil2" d="M844 372c0,-7 -1,-14 -3,-19 -1,-6 -4,-11 -7,-15 -3,-4 -7,-6 -11,-8 -5,-2 -9,-3 -14,-3 -6,0 -10,1 -15,3 -4,2 -8,4 -11,8 -3,4 -5,9 -7,15 -2,5 -3,12 -3,19 0,7 1,13 3,19 2,5 4,10 7,14 3,4 7,7 11,9 5,2 10,3 15,3 5,0 9,-1 14,-3 4,-2 8,-5 11,-9 3,-4 6,-9 7,-14 2,-6 3,-12 3,-19zm20 0c0,9 -2,17 -4,25 -3,7 -7,13 -11,19 -5,5 -11,9 -18,12 -6,3 -14,5 -22,5 -9,0 -17,-2 -24,-5 -6,-3 -12,-7 -17,-12 -5,-6 -8,-12 -11,-19 -2,-8 -4,-16 -4,-25 0,-10 2,-18 4,-25 3,-8 7,-14 11,-20 5,-5 11,-9 18,-12 7,-3 14,-4 23,-4 8,0 16,1 23,4 6,3 12,7 17,12 5,6 8,12 11,20 2,7 4,15 4,25zm65 -42l0 0c2,-3 5,-6 7,-8 3,-2 6,-4 9,-6 3,-2 6,-3 10,-4 4,-1 8,-1 13,-1 5,0 10,0 15,2 4,1 8,4 12,7 3,3 6,7 8,13 2,5 3,11 3,19l0 78 -19 0 0 -75c0,-10 -2,-17 -6,-22 -4,-4 -9,-6 -17,-6 -6,0 -13,2 -19,5 -6,4 -11,9 -15,15l0 83 -20 0 0 -116 15 0 4 16zm176 -3c-5,0 -9,1 -13,2 -3,2 -7,4 -10,7 -2,3 -5,7 -6,11 -2,4 -3,8 -4,12l60 0c0,-4 -1,-9 -2,-12 -1,-4 -3,-8 -5,-11 -2,-3 -5,-5 -9,-7 -3,-1 -7,-2 -11,-2zm9 89c7,0 12,0 18,-1 5,-1 10,-3 15,-5l0 16c-4,2 -9,4 -15,5 -6,1 -13,2 -20,2 -8,0 -16,-1 -23,-4 -8,-2 -14,-5 -19,-10 -6,-5 -10,-11 -13,-18 -3,-8 -4,-17 -4,-28 0,-10 1,-20 4,-27 3,-8 7,-15 12,-20 5,-5 10,-9 17,-12 6,-2 13,-3 19,-3 7,0 13,1 19,3 5,2 10,5 14,10 5,5 8,11 10,18 3,7 4,16 4,26 0,1 0,2 0,3 0,1 0,2 0,5l-81 0c0,7 2,13 4,18 2,5 5,10 9,13 4,3 8,5 14,7 5,1 10,2 16,2zm171 -45c0,-9 -1,-17 -3,-22 -2,-6 -5,-10 -8,-14 -4,-3 -7,-5 -11,-6 -4,-2 -8,-2 -12,-2 -6,0 -11,1 -16,3 -5,3 -10,6 -14,10l0 61c1,1 3,3 5,5 1,2 4,3 6,5 3,1 5,3 9,4 3,1 6,2 10,2 5,0 10,-2 15,-4 4,-2 8,-5 10,-9 3,-4 5,-9 7,-14 1,-6 2,-12 2,-19zm20 -1c0,10 -2,20 -4,28 -3,8 -7,14 -12,19 -5,5 -10,9 -17,12 -6,2 -12,4 -19,4 -5,0 -9,-1 -13,-2 -4,-2 -7,-3 -10,-5 -2,-2 -4,-3 -6,-5 -1,-2 -3,-3 -3,-4l-1 0 -4 13 -14 0 0 -177 19 0 0 71 0 0c5,-4 9,-7 15,-10 6,-2 12,-3 19,-3 3,0 7,0 10,1 4,0 8,2 12,3 3,2 7,5 10,7 4,3 7,7 9,11 3,5 5,10 7,16 1,6 2,13 2,21zm48 60l0 -116 19 0 0 116 -19 0zm0 -143l0 -21 19 0 0 21 -19 0zm87 57c0,4 1,6 2,8 2,2 4,4 6,5 2,1 5,3 8,3 3,1 6,2 9,3 4,1 9,2 12,3 4,1 8,3 11,5 4,2 6,6 8,10 2,4 3,9 3,15 0,6 -1,11 -3,16 -2,4 -6,8 -10,11 -4,3 -9,6 -15,7 -5,2 -12,3 -19,3 -4,0 -8,-1 -11,-1 -4,-1 -7,-1 -9,-2 -3,0 -5,-1 -7,-2 -2,-1 -4,-1 -5,-2l0 -16c5,2 10,4 14,5 5,1 10,2 16,2 5,0 9,-1 12,-2 4,0 7,-2 10,-3 2,-2 4,-4 6,-6 1,-3 2,-6 2,-9 0,-3 -1,-6 -2,-8 -2,-2 -3,-4 -5,-5 -3,-1 -5,-3 -8,-3 -3,-1 -6,-2 -9,-3 -4,-1 -8,-2 -12,-3 -5,-1 -8,-3 -12,-5 -3,-2 -6,-5 -8,-9 -2,-4 -3,-9 -3,-15 0,-6 1,-11 3,-16 2,-4 5,-8 9,-11 4,-3 8,-5 13,-6 5,-2 10,-2 16,-2 6,0 12,0 18,1 5,2 10,3 15,5l0 16c-5,-2 -10,-4 -15,-5 -5,-1 -10,-1 -15,-1 -4,0 -8,0 -11,1 -3,1 -6,2 -8,4 -2,1 -3,3 -4,5 -1,2 -2,5 -2,7zm108 86l0 -24 23 0 0 24 -23 0zm111 -20c3,-8 6,-19 11,-32l23 -64 19 0 -44 116 -19 0 -44 -116 19 0 23 64c5,13 8,24 11,32l1 0zm111 -80l1 0c2,-3 4,-6 7,-8 2,-2 5,-4 8,-6 4,-2 7,-3 11,-4 4,-1 8,-1 12,-1 6,0 11,0 15,2 5,1 9,4 12,7 4,3 6,7 8,13 2,5 3,11 3,19l0 78 -19 0 0 -75c0,-10 -2,-17 -5,-22 -4,-4 -10,-6 -17,-6 -7,0 -13,2 -19,5 -6,4 -12,9 -16,15l0 83 -19 0 0 -116 15 0 3 16z"/>
  <g id="_166_x002c__Heart_x002c__Love_x002c__Like_x002c__Twitter">
   <g>
    <path class="fil1" d="M418 238c33,0 59,27 59,59 0,58 -59,91 -117,150 -58,-59 -117,-92 -117,-150 0,-32 26,-59 59,-59 29,0 43,15 58,44 15,-29 29,-44 58,-44z"/>
   </g>
  </g>
 </g>
</svg>
