<?xml version="1.0" encoding="UTF-8"?>
<!DOCTYPE svg PUBLIC "-//W3C//DTD SVG 1.1//EN" "http://www.w3.org/Graphics/SVG/1.1/DTD/svg11.dtd">
<!-- Creator: CorelDRAW X7 -->
<svg xmlns="http://www.w3.org/2000/svg" xml:space="preserve" width="135.298mm" height="38.6232mm" version="1.1" style="shape-rendering:geometricPrecision; text-rendering:geometricPrecision; image-rendering:optimizeQuality; fill-rule:evenodd; clip-rule:evenodd"
viewBox="0 0 4028 1150"
 xmlns:xlink="http://www.w3.org/1999/xlink">
 <defs>
  <style type="text/css">
   <![CDATA[
    .str0 {stroke:#4D4D4D;stroke-width:10.5007;stroke-dasharray:21.001461 31.502192}
    .fil0 {fill:none}
    .fil3 {fill:gray}
    .fil1 {fill:#DE2C68}
    .fil4 {fill:#E6E6E6}
    .fil5 {fill:red}
    .fil2 {fill:white}
   ]]>
  </style>
 </defs>
 <g id="Layer_x0020_1">
  <metadata id="CorelCorpID_0Corel-Layer"/>
  <path class="fil0 str0" d="M575 5l2878 0c314,0 570,257 570,570l0 0c0,313 -256,570 -570,570l-2878 0c-314,0 -570,-257 -570,-570l0 0c0,-313 256,-570 570,-570z"/>
  <path class="fil1" d="M577 125l2874 0c247,0 450,202 450,450l0 0c0,248 -203,450 -450,450l-2874 0c-247,0 -450,-202 -450,-450l0 0c0,-248 203,-450 450,-450z"/>
  <path class="fil2" d="M604 238c186,0 337,151 337,337 0,186 -151,337 -337,337 -186,0 -337,-151 -337,-337 0,-186 151,-337 337,-337z"/>
  <path class="fil3" d="M642 675l73 -118c1,0 1,-1 1,-1 13,-21 19,-44 19,-69 0,-72 -59,-131 -131,-131 -72,0 -131,59 -131,131 0,25 7,48 19,69 1,0 1,1 1,1l71 118c-55,8 -91,31 -91,58 0,34 57,61 131,61 74,0 131,-27 131,-61 0,-27 -37,-51 -93,-58zm-136 -126c-12,-18 -18,-40 -18,-62 0,-64 52,-116 116,-116 64,0 117,52 117,116 0,22 -7,44 -18,62 0,1 -1,1 -1,1l-77 125c-2,2 -2,2 -3,5l-20 31 -96 -160c0,-1 0,-1 0,-2zm98 230c-69,0 -117,-24 -117,-46 0,-20 36,-38 85,-44l24 40c1,2 3,4 6,4 0,0 0,0 0,0 3,0 5,-2 6,-4l25 -40c50,5 88,24 88,44 0,22 -48,46 -117,46z"/>
  <circle class="fil4" cx="604" cy="478" r="77"/>
  <path class="fil5" d="M604 434l0 0c9,0 16,7 16,15l0 14 13 0c9,0 16,7 16,15l0 0c0,9 -7,16 -16,16l-13 0 0 13c0,9 -7,16 -16,16l0 0c-9,0 -16,-7 -16,-16l0 -13 -13 0c-9,0 -16,-7 -16,-16l0 0c0,-8 7,-15 16,-15l13 0 0 -14c0,-8 7,-15 16,-15z"/>
  <path class="fil2" d="M1378 721c-2,1 -7,2 -12,3 -6,1 -12,2 -20,2 -10,0 -19,-1 -27,-4 -7,-2 -14,-6 -19,-11 -5,-5 -8,-10 -11,-17 -2,-7 -4,-14 -4,-22l0 -119 -37 0 0 -27 37 0 0 -53 32 0 0 53 59 0 0 27 -59 0 0 114c0,4 1,8 2,12 2,4 4,7 6,10 3,3 7,5 11,7 5,1 10,2 16,2 4,0 9,0 13,-1 5,-1 9,-1 13,-3l0 27zm74 0l0 -195 32 0 0 195 -32 0zm-1 -240l0 -36 32 0 0 36 -32 0zm284 240l-32 0 0 -125c0,-9 -1,-16 -3,-22 -2,-6 -4,-11 -8,-15 -3,-3 -7,-6 -12,-8 -5,-2 -10,-3 -17,-3 -11,0 -21,3 -31,9 -9,6 -17,15 -25,25l0 139 -31 0 0 -195 24 0 6 27 1 0c4,-4 7,-9 12,-12 4,-4 8,-8 14,-11 5,-3 10,-5 17,-7 6,-1 12,-2 20,-2 14,0 26,4 36,10 9,7 17,17 22,29l1 0c8,-12 18,-22 29,-29 11,-7 24,-10 39,-10 7,0 14,1 22,3 7,2 14,5 21,10 6,6 12,13 16,22 4,9 6,20 6,34l0 131 -32 0 0 -125c0,-9 -1,-16 -2,-22 -2,-6 -5,-11 -8,-15 -4,-3 -8,-6 -13,-8 -5,-2 -10,-3 -16,-3 -11,0 -22,3 -31,9 -9,6 -18,15 -25,25l0 139zm358 -98c0,-16 -2,-28 -5,-38 -4,-10 -8,-17 -14,-22 -6,-6 -12,-10 -18,-12 -7,-2 -13,-3 -19,-3 -10,0 -19,2 -28,6 -9,5 -16,10 -23,16l0 102c2,3 4,6 7,9 3,3 7,6 11,8 4,3 9,5 14,7 6,2 11,3 18,3 9,0 17,-2 25,-6 7,-3 13,-9 18,-15 4,-7 8,-15 11,-24 2,-10 3,-20 3,-31zm33 -3c0,18 -2,34 -7,47 -5,13 -11,24 -19,33 -9,9 -18,15 -28,19 -10,5 -21,7 -32,7 -9,0 -16,-1 -22,-3 -7,-2 -12,-5 -16,-8 -5,-3 -8,-6 -11,-9 -3,-3 -5,-5 -6,-7l0 0 -7 22 -24 0 0 -297 32 0 0 120 0 0c7,-7 15,-13 25,-17 9,-4 20,-6 31,-6 6,0 12,1 18,2 7,1 13,3 19,6 6,3 12,7 18,12 6,5 11,11 15,18 4,8 8,16 10,26 3,10 4,22 4,35zm193 79l0 0c-3,4 -6,7 -10,10 -4,3 -9,6 -14,9 -5,2 -11,4 -17,6 -6,1 -13,2 -20,2 -9,0 -18,-2 -26,-4 -8,-3 -15,-7 -20,-13 -6,-5 -10,-12 -13,-19 -4,-8 -5,-17 -5,-27 0,-10 2,-18 5,-26 4,-7 8,-14 15,-19 6,-6 14,-10 22,-13 9,-2 19,-4 30,-4 10,0 19,1 28,3 8,1 16,4 23,6l1 0 0 -14c0,-5 -1,-10 -1,-14 -1,-4 -2,-7 -4,-11 -3,-6 -9,-12 -17,-16 -8,-4 -18,-6 -31,-6 -10,0 -20,1 -28,2 -9,2 -17,5 -26,8l0 -27c3,-1 7,-3 11,-4 5,-2 10,-3 14,-4 5,-1 11,-2 16,-2 6,-1 11,-1 16,-1 20,0 36,4 49,10 12,7 21,17 27,28 2,4 3,9 4,15 1,5 2,11 2,17l0 130 -27 0 -4 -22zm-1 -64c-6,-1 -13,-3 -21,-5 -8,-1 -17,-2 -27,-2 -13,0 -24,3 -32,9 -7,5 -11,14 -11,26 0,6 1,11 3,16 2,5 4,8 8,11 3,3 7,5 12,7 4,1 9,2 14,2 7,0 13,-1 19,-3 6,-2 11,-4 16,-7 4,-3 8,-6 12,-8 3,-3 5,-5 7,-7l0 -39zm205 -114c9,0 18,1 27,3 8,2 16,5 22,8l0 26c-9,-3 -17,-5 -24,-7 -7,-2 -15,-2 -22,-2 -8,0 -16,1 -24,4 -7,2 -14,6 -20,12 -7,6 -12,14 -15,24 -4,10 -6,22 -6,36 0,11 1,21 4,29 3,9 7,17 13,24 5,6 12,11 21,15 8,3 17,5 28,5 8,0 16,-1 24,-2 8,-2 16,-4 24,-8l0 27c-2,1 -5,2 -9,4 -4,1 -8,2 -13,3 -4,1 -9,2 -14,3 -5,1 -10,1 -15,1 -13,0 -26,-2 -37,-6 -12,-4 -22,-10 -31,-18 -9,-9 -16,-19 -21,-32 -5,-12 -7,-27 -7,-44 0,-13 1,-24 4,-35 3,-10 6,-19 11,-27 4,-8 10,-14 16,-20 6,-5 13,-10 20,-13 7,-4 14,-6 22,-8 7,-1 15,-2 22,-2zm151 57c0,5 2,10 4,13 2,3 5,6 9,8 4,2 8,4 13,6 5,1 10,2 16,3 7,2 14,4 21,6 6,2 12,5 18,9 5,4 10,9 13,16 4,6 5,15 5,26 0,10 -1,18 -5,26 -4,8 -10,14 -17,19 -7,5 -15,9 -25,12 -9,2 -20,4 -32,4 -7,0 -13,-1 -19,-1 -6,-1 -11,-2 -15,-3 -5,-1 -9,-2 -12,-4 -3,-1 -6,-2 -8,-3l0 -27c8,4 17,6 24,8 8,2 17,3 27,3 7,0 14,-1 20,-2 6,-1 11,-4 16,-6 4,-3 7,-6 10,-10 2,-4 3,-9 3,-14 0,-6 -1,-10 -3,-14 -2,-3 -5,-6 -9,-9 -3,-2 -7,-4 -12,-5 -5,-2 -10,-3 -15,-5 -7,-1 -14,-3 -21,-5 -7,-2 -14,-5 -19,-8 -6,-4 -11,-9 -14,-15 -4,-7 -6,-15 -6,-25 0,-10 2,-19 6,-27 3,-7 9,-13 15,-18 6,-5 13,-9 22,-11 8,-3 17,-4 26,-4 11,0 21,1 30,3 10,2 18,5 25,8l0 26c-8,-3 -16,-5 -24,-7 -8,-2 -17,-3 -25,-3 -8,0 -14,1 -19,2 -5,2 -10,4 -13,6 -3,3 -6,6 -7,10 -2,4 -3,8 -3,12zm178 143l0 -195 32 0 0 195 -32 0zm-1 -240l0 -36 32 0 0 36 -32 0zm130 240l0 -40 39 0 0 40 -39 0zm186 -32c5,-15 11,-33 19,-55l39 -108 32 0 -74 195 -33 0 -73 -195 32 0 38 108c8,22 14,40 19,55l1 0zm187 -136l1 0c3,-4 7,-9 11,-12 5,-4 10,-8 15,-11 5,-3 11,-5 17,-7 7,-1 14,-2 21,-2 9,0 17,1 25,4 8,2 15,6 21,12 5,5 10,12 13,21 4,9 5,20 5,32l0 131 -32 0 0 -125c0,-17 -3,-29 -9,-37 -7,-7 -16,-11 -29,-11 -11,0 -21,3 -31,9 -11,6 -19,15 -27,25l0 139 -32 0 0 -195 25 0 6 27z"/>
 </g>
</svg>
