<?xml version="1.0" encoding="UTF-8"?>
<!DOCTYPE svg PUBLIC "-//W3C//DTD SVG 1.1//EN" "http://www.w3.org/Graphics/SVG/1.1/DTD/svg11.dtd">
<!-- Creator: CorelDRAW X7 -->
<svg xmlns="http://www.w3.org/2000/svg" xml:space="preserve" width="151.948mm" height="151.948mm" version="1.1" style="shape-rendering:geometricPrecision; text-rendering:geometricPrecision; image-rendering:optimizeQuality; fill-rule:evenodd; clip-rule:evenodd"
viewBox="0 0 15779 15779"
 xmlns:xlink="http://www.w3.org/1999/xlink">
 <defs>
  <style type="text/css">
   <![CDATA[
    .fil1 {fill:black}
    .fil0 {fill:#E6E6E6}
   ]]>
  </style>
 </defs>
 <g id="Layer_x0020_1">
  <metadata id="CorelCorpID_0Corel-Layer"/>
  <circle class="fil0" cx="7890" cy="7889" r="7889"/>
  <g id="_1475975967824">
   <path class="fil1" d="M4047 9014c491,0 953,-3 1411,0 257,3 397,111 423,315 29,257 -120,430 -400,433 -527,7 -1050,3 -1577,3 -153,0 -303,7 -456,-3 -188,-10 -374,-49 -465,-244 -91,-195 -26,-371 98,-530 501,-637 1005,-1278 1509,-1916 29,-39 58,-78 88,-113 -33,-56 -78,-30 -117,-33 -352,-3 -706,0 -1057,-3 -82,0 -163,-10 -241,-26 -185,-42 -299,-228 -257,-410 29,-123 127,-224 251,-254 78,-19 159,-29 240,-29 579,-3 1161,-3 1740,0 104,-3 205,10 306,36 221,75 315,280 227,494 -78,186 -201,345 -325,504 -426,543 -852,1083 -1278,1620 -36,42 -68,84 -120,156l0 0z"/>
   <path class="fil1" d="M7819 7303c78,-100 160,-195 293,-221 257,-52 498,114 501,374 10,651 6,1301 0,1952 0,169 -111,318 -270,367 -163,62 -348,13 -455,-127 -56,-68 -78,-81 -157,-19 -295,240 -630,283 -991,166 -579,-189 -817,-641 -882,-1191 -68,-595 130,-1102 664,-1414 442,-264 891,-241 1297,113l0 0zm-1151 1187c7,144 52,280 137,394 175,234 510,283 748,107 39,-29 74,-65 107,-107 182,-247 182,-654 0,-901 -91,-127 -234,-202 -387,-205 -358,-23 -608,254 -605,712l0 0zm3405 20c-26,-836 524,-1460 1304,-1483 829,-26 1434,530 1460,1343 26,823 -478,1405 -1255,1483 -849,85 -1522,-530 -1509,-1343l0 0zm816 -78c-6,162 43,322 140,455 179,234 514,280 748,98 36,-26 65,-59 94,-91 189,-247 189,-664 4,-911 -91,-123 -234,-202 -387,-205 -352,-19 -599,247 -599,654l0 0zm-1102 -569c0,504 3,1008 0,1512 3,231 -179,423 -410,429 -39,0 -81,-3 -120,-13 -163,-42 -286,-214 -286,-419l0 -2586c0,-153 -4,-302 0,-455 3,-250 162,-413 403,-413 247,-3 413,159 413,420 3,507 0,1017 0,1525l0 0z"/>
  </g>
 </g>
</svg>
